<svg xmlns="http://www.w3.org/2000/svg" width="272.855" height="122.241" viewBox="0 0 272.855 122.241">
  <g id="Group_2037" data-name="Group 2037" transform="translate(-1547.519 -2953)">
    <g id="Group_2034" data-name="Group 2034">
      <path id="Path_1070" data-name="Path 1070" d="M1593.685,3055.1c0-3.6-2.517-6.833-7.552-6.833h-9.71v20.5h4.676v-6.833h3.236l5.035,6.833h5.035v-.359l-5.754-6.833C1592.607,3060.136,1593.685,3057.978,1593.685,3055.1Zm-7.552,3.237H1581.1v-6.114h5.034c2.158,0,2.877,1.8,2.877,3.237A2.807,2.807,0,0,1,1586.133,3058.338Z" fill="#fff"/>
      <path id="Path_1071" data-name="Path 1071" d="M1603.755,3054.023c-4.675,0-7.552,2.877-7.552,7.552s2.877,7.552,7.912,7.552a9.071,9.071,0,0,0,6.113-2.158l-2.517-2.517a6.941,6.941,0,0,1-3.6,1.079c-2.518,0-3.6-1.079-3.956-2.518h10.429C1612.026,3056.9,1608.79,3054.023,1603.755,3054.023Zm-3.237,5.754a3.146,3.146,0,0,1,3.237-2.158c1.8,0,3.237.719,3.6,2.158Z" fill="#fff"/>
      <path id="Path_1072" data-name="Path 1072" d="M1623.535,3054.023c-1.8,0-3.6.359-4.676,2.157l-.359-1.8h-3.956v20.859h4.315v-7.912a5.8,5.8,0,0,0,4.676,2.157c4.315,0,7.192-2.877,7.192-7.552S1627.85,3054.023,1623.535,3054.023Zm-.72,11.148c-1.8,0-3.956-1.439-3.956-3.6,0-2.877,2.158-3.6,3.956-3.6a3.6,3.6,0,0,1,3.6,3.6A3.4,3.4,0,0,1,1622.815,3065.171Z" fill="#fff"/>
      <path id="Path_1073" data-name="Path 1073" d="M1641.156,3054.023c-4.675,0-7.912,3.236-7.912,7.552s2.878,7.552,7.912,7.552,7.912-3.237,7.912-7.552S1645.831,3054.023,1641.156,3054.023Zm0,11.508c-2.517,0-3.6-1.8-3.6-3.956s1.079-3.956,3.6-3.956a3.974,3.974,0,0,1,0,7.912Z" fill="#fff"/>
      <path id="Path_1074" data-name="Path 1074" d="M1659.5,3065.171c-.719,0-1.438-.36-1.438-1.8v-5.4h3.6v-3.6h-3.6v-3.956l-4.316.36v3.6h-2.517v3.6h2.517v5.4c0,4.315,2.518,5.754,5.395,5.754a6.785,6.785,0,0,0,2.877-.719l-1.079-3.6C1660.936,3065.171,1660.217,3065.171,1659.5,3065.171Z" fill="#fff"/>
      <path id="Path_1075" data-name="Path 1075" d="M1672.084,3054.023c-4.675,0-7.552,2.877-7.552,7.552s2.877,7.552,7.912,7.552a9.069,9.069,0,0,0,6.113-2.158l-2.517-2.517a6.941,6.941,0,0,1-3.6,1.079c-2.518,0-3.6-1.079-3.956-2.518h10.429C1680.356,3056.9,1677.119,3054.023,1672.084,3054.023Zm-3.236,5.754a3.144,3.144,0,0,1,3.236-2.158c1.8,0,3.237.719,3.6,2.158Z" fill="#fff"/>
      <path id="Path_1076" data-name="Path 1076" d="M1694.381,3054.382l-.36,1.8a5.273,5.273,0,0,0-4.675-2.157c-4.315,0-7.192,2.877-7.192,7.552s2.877,7.552,7.192,7.552a6.959,6.959,0,0,0,4.675-2.158v7.912h4.316v-20.859h-3.956Zm-4.675,10.789a3.6,3.6,0,0,1,0-7.193,3.672,3.672,0,0,1,3.956,3.6C1693.662,3064.092,1691.864,3065.171,1689.706,3065.171Z" fill="#fff"/>
    </g>
    <g id="Group_2035" data-name="Group 2035">
      <path id="Path_1077" data-name="Path 1077" d="M1575.01,3001.719h-7.552a3.045,3.045,0,0,1-2.158-.719,2.752,2.752,0,0,1-.719-1.8c0-.719.36-1.078.719-1.8s1.439-.719,2.518-.719h6.833v-4.315h-6.833a10.5,10.5,0,0,0-3.237.719,15.631,15.631,0,0,0-2.517,1.438c-.719.36-1.079,1.439-1.439,2.158a6.127,6.127,0,0,0-.359,2.517v1.439c0,.36.359.719.359,1.079h-2.158v4.315h16.543Z" fill="#fff"/>
      <path id="Path_1078" data-name="Path 1078" d="M1593.351,2995.6c.36.36.72.719,1.079.719s1.079.36,1.439.36a2.159,2.159,0,0,0,1.438-.36c.36-.359.72-.359,1.079-.719s.719-.719.719-1.079a3.054,3.054,0,0,0,0-2.877c-.359-.359-.359-.719-.719-1.079s-.719-.719-1.079-.719-1.079-.36-1.438-.36a2.161,2.161,0,0,0-1.439.36c-.359.36-.719.36-1.079.719s-.719.72-.719,1.079c-.36,0-.36.719-.36,1.079a2.162,2.162,0,0,0,.36,1.439A1.868,1.868,0,0,0,1593.351,2995.6Z" fill="#fff"/>
      <path id="Path_1079" data-name="Path 1079" d="M1607.736,3001.719h-7.192v20.5h-14.385v-33.446h-7.193v33.446h-17.621a7.176,7.176,0,0,1-3.237-.72,3.586,3.586,0,0,1-1.8-1.438c-.36-.719-.72-1.079-1.079-1.8a4.56,4.56,0,0,1-.36-2.158,11.07,11.07,0,0,1,.36-3.6,24.541,24.541,0,0,1,1.079-2.877l-6.474-3.237a5.116,5.116,0,0,0-.719,2.158c0,.719-.719,1.438-.719,2.517-.36.719-.36,1.8-.719,2.877s0,1.8,0,2.877a21.017,21.017,0,0,0,.719,4.675,12.162,12.162,0,0,0,2.158,4.316,9.171,9.171,0,0,0,4.315,2.877,17.428,17.428,0,0,0,6.474,1.079h42.436a2.16,2.16,0,0,0,1.438-.36c.36-.36.719-.36,1.079-.719s.719-.719.719-1.079c.36-.36.36-.719.36-1.439v-.359l.359-24.095Z" fill="#fff"/>
      <path id="Path_1080" data-name="Path 1080" d="M1607.736,2989.851c-.359-.36-.719-.719-1.078-.719a2.161,2.161,0,0,0-1.439-.36c-.719,0-1.079,0-1.438.36s-.72.359-1.079.719-.72.719-.72,1.079a3.061,3.061,0,0,0,0,2.877c.36.36.36.719.72,1.079s.719.719,1.079.719a3.053,3.053,0,0,0,2.877,0c.359-.359.719-.359,1.078-.719s.72-.719.72-1.079a3.062,3.062,0,0,0,0-2.877A5.182,5.182,0,0,0,1607.736,2989.851Z" fill="#fff"/>
      <path id="Path_1081" data-name="Path 1081" d="M1657.725,3035.524c-.36-.36-.72-.719-1.079-.719a3.055,3.055,0,0,0-2.877,0c-.36.359-.72.359-1.079.719s-.719.719-.719,1.079a3.054,3.054,0,0,0,0,2.877c.359.359.359.719.719,1.079s.719.719,1.079.719a3.062,3.062,0,0,0,2.877,0c.359-.36.719-.36,1.079-.719s.719-.72.719-1.079a3.061,3.061,0,0,0,0-2.877C1658.444,3036.243,1658.084,3035.883,1657.725,3035.524Z" fill="#fff"/>
      <path id="Path_1082" data-name="Path 1082" d="M1684.337,3001.719h-7.193v20.5h-17.621v-20.5h-7.193v20.5h-11.508v-3.956a41.248,41.248,0,0,0-.36-6.833,32.966,32.966,0,0,1-.359-5.754,3.238,3.238,0,0,0-.36-1.8,6.363,6.363,0,0,0-2.517-2.518,3.247,3.247,0,0,0-1.8-.359h-8.991a14.432,14.432,0,0,0-5.394,1.078,6.6,6.6,0,0,0-3.6,2.518,18.077,18.077,0,0,0-2.877,4.315,13.144,13.144,0,0,0-1.079,5.4v10.789a3.152,3.152,0,0,0,2.518,3.236c.719.36,1.8.36,2.517.719a6.117,6.117,0,0,0,2.518.36c1.078,0,1.8.36,2.877.36h5.754a8.928,8.928,0,0,0,2.877-.36,10.778,10.778,0,0,1-1.439,3.6,19.872,19.872,0,0,1-2.158,2.877,9.416,9.416,0,0,1-3.236,1.8,15.979,15.979,0,0,1-4.675.719v7.192a16.68,16.68,0,0,0,7.552-1.438,20.157,20.157,0,0,0,5.394-3.6,14.222,14.222,0,0,0,3.6-5.4q1.08-3.237,2.158-6.473h41a2.16,2.16,0,0,0,1.438-.36c.36-.359.719-.359,1.079-.719s.719-.719.719-1.079c.36-.36.36-.719.36-1.438v-23.376Zm-51.067,20.139a39.583,39.583,0,0,1-6.473.719h-2.877a2.167,2.167,0,0,1-1.439-.359,2.692,2.692,0,0,0-1.8-.36v-7.912c0-.719.36-1.8.36-2.517s.719-1.439,1.438-2.158a4.589,4.589,0,0,1,2.158-1.439,6.126,6.126,0,0,1,2.517-.359h6.474v9.71A18.98,18.98,0,0,1,1633.27,3021.858Z" fill="#fff"/>
      <path id="Path_1083" data-name="Path 1083" d="M1681.1,3035.524c-.359-.36-.719-.719-1.079-.719a3.055,3.055,0,0,0-2.877,0c-.359.359-.719.359-1.078.719s-1.079.719-1.079,1.438a3.054,3.054,0,0,0,0,2.877c.359.36.359.72.719,1.079s.719.719,1.079.719a3.053,3.053,0,0,0,2.877,0c.359-.359.719-.359,1.079-.719s.719-.719.719-1.079a3.055,3.055,0,0,0,0-2.877C1681.82,3036.243,1681.46,3035.883,1681.1,3035.524Z" fill="#fff"/>
      <path id="Path_1084" data-name="Path 1084" d="M1672.11,3035.524c-.36-.36-.72-.719-1.079-.719a3.055,3.055,0,0,0-2.877,0c-.36.359-.72.359-1.079.719s-.719.719-.719,1.079-.36,1.079-.36,1.438a2.162,2.162,0,0,0,.36,1.439c.359.359.359.719.719,1.079s.719.719,1.079.719a3.062,3.062,0,0,0,2.877,0c.359-.36.719-.36,1.079-.719s.719-.72.719-1.079a3.054,3.054,0,0,0,0-2.877C1672.469,3036.243,1672.469,3035.883,1672.11,3035.524Z" fill="#fff"/>
      <path id="Path_1085" data-name="Path 1085" d="M1706.634,3011.069c0-2.158-.36-3.956-.36-5.754h-7.192v17.262a24.265,24.265,0,0,1-.72,5.035c-.359,1.8-.719,2.877-1.078,4.316a31.824,31.824,0,0,1-2.158,3.6,9.175,9.175,0,0,1-3.6,2.517c-1.439.719-2.877.719-5.035.719v7.193a18.292,18.292,0,0,0,7.912-1.439,16.527,16.527,0,0,0,8.99-8.99q1.078-3.237,2.158-6.474a31.435,31.435,0,0,0,.719-5.754c0-1.8.36-3.955.36-5.754Z" fill="#fff"/>
    </g>
    <g id="Group_2036" data-name="Group 2036">
      <path id="Path_1086" data-name="Path 1086" d="M1808.628,3016.814a43.844,43.844,0,0,1-11.149,11.868c-.359.359-.719.359-1.8.719-4.315-6.474-8.271-12.947-12.587-19.42,6.474-3.956,10.07-12.587,9.351-20.5-.36-8.271-5.754-14.745-13.307-14.745-12.587-.359-19.06.36-31.647,0-2.517,0-3.6,0-3.6,2.877v22.3c0,5.4-5.4,9.71-10.429,9.71h0a11.9,11.9,0,0,1-11.868-11.508v-32.726c0-7.552,4.316-12.227,11.508-12.227,16.9,0,28.051-.36,44.953,0,16.184,0,30.928,13.306,35.244,30.568A40.916,40.916,0,0,1,1808.628,3016.814Z" fill="#fff"/>
      <path id="Path_1087" data-name="Path 1087" d="M1783.094,3010.341l15.824,17.262,1.438-1.079-16.183-17.622Z" fill="#fff" opacity="0.19" style="isolation: isolate"/>
      <path id="Path_1088" data-name="Path 1088" d="M1820.136,3052.417h0a10.989,10.989,0,0,1-8.991,12.587l-54.663,7.912a10.549,10.549,0,0,1-11.868-8.991v-.36c-.719-5.754,3.237-11.508,8.991-12.227l54.663-7.912A10.066,10.066,0,0,1,1820.136,3052.417Z" fill="#fff"/>
      <path id="Path_1089" data-name="Path 1089" d="M1816.9,3061.767l-.359.36a10.76,10.76,0,0,1-15.1-.719l-38.84-42.436a10.76,10.76,0,0,1,.72-15.1l.359-.359a10.759,10.759,0,0,1,15.105.719l38.839,42.436A10.758,10.758,0,0,1,1816.9,3061.767Z" fill="#fff"/>
    </g>
  </g>
</svg>
