<svg xmlns="http://www.w3.org/2000/svg" xmlns:xlink="http://www.w3.org/1999/xlink" width="1922" height="752" viewBox="0 0 1922 752">
  <defs>
    <clipPath id="clip-path">
      <rect id="Rectangle_21" data-name="Rectangle 21" width="1922" height="752" transform="translate(0 146)" fill="none"/>
    </clipPath>
    <clipPath id="clip-path-2">
      <rect id="Rectangle_17" data-name="Rectangle 17" width="1919.652" height="1291.402" transform="translate(2.348 146.049)" fill="none"/>
    </clipPath>
    <linearGradient id="linear-gradient" x1="0.5" y1="1.104" x2="0.5" y2="-0.087" gradientUnits="objectBoundingBox">
      <stop offset="0" stop-color="#00d8fd"/>
      <stop offset="0.145" stop-color="#1d92e5"/>
      <stop offset="0.322" stop-color="#3e44cb"/>
      <stop offset="0.448" stop-color="#5312bb"/>
      <stop offset="0.51" stop-color="#5c00b5"/>
      <stop offset="0.823" stop-color="#5c00b5"/>
    </linearGradient>
    <filter id="Rectangle_16" x="-8.123" y="-10.422" width="1982.477" height="1354.227" filterUnits="userSpaceOnUse">
      <feOffset dx="20.942" dy="20.942" input="SourceAlpha"/>
      <feGaussianBlur stdDeviation="10.471" result="blur"/>
      <feFlood flood-opacity="0.251"/>
      <feComposite operator="in" in2="blur"/>
      <feComposite in="SourceGraphic"/>
    </filter>
    <linearGradient id="linear-gradient-2" y1="1.49" y2="-0.103" xlink:href="#linear-gradient"/>
    <linearGradient id="linear-gradient-4" x1="1.046" y1="1.267" x2="-0.126" y2="-0.379" xlink:href="#linear-gradient"/>
    <linearGradient id="linear-gradient-5" x1="0.119" y1="1.677" x2="0.677" y2="-0.047" xlink:href="#linear-gradient"/>
    <linearGradient id="linear-gradient-6" x1="0.5" y1="-0.248" x2="0.5" y2="1.016" gradientUnits="objectBoundingBox">
      <stop offset="0" stop-color="#7fffff"/>
      <stop offset="0.638" stop-color="#3985ff"/>
      <stop offset="0.998" stop-color="#1545ff"/>
    </linearGradient>
    <linearGradient id="linear-gradient-7" x1="0.5" y1="-0.522" x2="0.5" y2="1.527" xlink:href="#linear-gradient-6"/>
    <linearGradient id="linear-gradient-8" x1="0.5" y1="-0.407" x2="0.5" y2="1.545" gradientUnits="objectBoundingBox">
      <stop offset="0" stop-color="#acffff"/>
      <stop offset="0.638" stop-color="#4985ff"/>
      <stop offset="0.998" stop-color="#1545ff"/>
    </linearGradient>
  </defs>
  <g id="Group_2055" data-name="Group 2055" transform="translate(0 -146)">
    <g id="Group_2054" data-name="Group 2054" clip-path="url(#clip-path)">
      <g id="Group_2053" data-name="Group 2053">
        <g id="Group_2045" data-name="Group 2045">
          <g id="Group_2044" data-name="Group 2044" clip-path="url(#clip-path-2)">
            <g id="Group_2043" data-name="Group 2043">
              <g transform="matrix(1, 0, 0, 1, 0, 146)" filter="url(#Rectangle_16)">
                <rect id="Rectangle_16-2" data-name="Rectangle 16" width="1919.652" height="1291.402" transform="translate(2.35 0.05)" fill="url(#linear-gradient)"/>
              </g>
            </g>
          </g>
        </g>
        <g id="Group_2048" data-name="Group 2048">
          <g id="Group_2047" data-name="Group 2047" clip-path="url(#clip-path-2)">
            <g id="Group_2046" data-name="Group 2046">
              <circle id="Ellipse_3" data-name="Ellipse 3" cx="391.115" cy="391.115" r="391.115" transform="translate(112.108 4.052) rotate(-45)" fill="url(#linear-gradient-2)"/>
              <circle id="Ellipse_4" data-name="Ellipse 4" cx="391.115" cy="391.115" r="391.115" transform="translate(1146.108 898.052) rotate(-45)" fill="url(#linear-gradient-2)"/>
              <circle id="Ellipse_5" data-name="Ellipse 5" cx="217.645" cy="217.645" r="217.645" transform="translate(-22.089 587.894) rotate(-45)" fill="url(#linear-gradient-4)"/>
              <circle id="Ellipse_6" data-name="Ellipse 6" cx="171.628" cy="171.628" r="171.628" transform="translate(1307.018 122.496)" fill="url(#linear-gradient-5)"/>
              <path id="Path_1101" data-name="Path 1101" d="M298.561,169.82l1.617,4.978h5.234l-4.234,3.076,1.617,4.978-4.234-3.076-4.234,3.076,1.617-4.978-4.234-3.076h5.234Z" fill="#fff"/>
              <path id="Path_1102" data-name="Path 1102" d="M410.775,370.377l1.617,4.978h5.234l-4.234,3.076,1.617,4.978-4.234-3.076-4.234,3.076,1.617-4.978-4.234-3.076h5.234Z" fill="#fff"/>
              <path id="Path_1103" data-name="Path 1103" d="M825.38,141.714,827,146.692h5.234L828,149.768l1.617,4.978-4.234-3.077-4.234,3.077,1.617-4.978-4.234-3.076h5.234Z" fill="#fff"/>
              <path id="Path_1104" data-name="Path 1104" d="M1564.665,344.353l1.617,4.978h5.234l-4.234,3.076,1.617,4.978-4.234-3.077-4.234,3.077,1.617-4.978-4.234-3.076h5.234Z" fill="#fff"/>
              <path id="Path_1105" data-name="Path 1105" d="M1757.652,251.571l1.617,4.977h5.234l-4.234,3.077,1.617,4.978-4.234-3.077-4.234,3.077,1.617-4.978-4.234-3.077h5.234Z" fill="#fff"/>
              <path id="Path_1106" data-name="Path 1106" d="M1042.715,363.861l1.617,4.978h5.234l-4.234,3.076,1.617,4.978-4.234-3.076-4.234,3.076,1.617-4.978-4.234-3.076h5.234Z" fill="#fff"/>
              <path id="Path_1107" data-name="Path 1107" d="M535.322,95.742l1.617,4.978h5.234l-4.234,3.076,1.617,4.978-4.234-3.077-4.234,3.077,1.617-4.978-4.234-3.076h5.234Z" fill="#fff"/>
              <path id="Path_1108" data-name="Path 1108" d="M195.874,353.216l.809,2.489H199.3l-2.117,1.539.809,2.489-2.117-1.539-2.117,1.539.809-2.489-2.117-1.539h2.617Z" fill="#fff"/>
              <path id="Path_1109" data-name="Path 1109" d="M506.521,219.875l.809,2.489h2.617l-2.117,1.538.809,2.489-2.117-1.538-2.117,1.538.809-2.489-2.117-1.538h2.617Z" fill="#fff"/>
              <path id="Path_1110" data-name="Path 1110" d="M170.282,119.238l.809,2.489h2.617l-2.117,1.538.809,2.489-2.117-1.538-2.117,1.538.809-2.489-2.117-1.538h2.617Z" fill="#fff"/>
              <path id="Path_1111" data-name="Path 1111" d="M881.26,490.329l.809,2.489h2.617l-2.117,1.538.809,2.489-2.117-1.538-2.117,1.538.809-2.489-2.117-1.538h2.617Z" fill="#fff"/>
              <path id="Path_1112" data-name="Path 1112" d="M1151.651,223.133l.809,2.489h2.617l-2.117,1.538.809,2.489-2.117-1.538-2.117,1.538.809-2.489-2.117-1.538h2.617Z" fill="#fff"/>
              <path id="Path_1113" data-name="Path 1113" d="M1681.765,521.055l.809,2.489h2.617l-2.117,1.538.809,2.489-2.117-1.538-2.117,1.538.809-2.489-2.117-1.538h2.617Z" fill="#fff"/>
              <path id="Path_1114" data-name="Path 1114" d="M1347.679,517.8l.809,2.489h2.617l-2.117,1.539.809,2.489-2.117-1.538-2.117,1.538.809-2.489-2.117-1.539h2.617Z" fill="#fff"/>
              <path id="Path_1115" data-name="Path 1115" d="M600.914,341.095l.809,2.489h2.617l-2.117,1.538.808,2.489-2.117-1.538-2.117,1.538.809-2.489-2.117-1.538h2.617Z" fill="#fff"/>
            </g>
          </g>
        </g>
        <g id="Group_2049" data-name="Group 2049">
          <rect id="Rectangle_19" data-name="Rectangle 19" width="1919.652" height="1291.402" transform="translate(2.348 146.049)" fill="none"/>
        </g>
        <path id="Path_1116" data-name="Path 1116" d="M1827.843,222l.809,2.489h2.617l-2.117,1.538.809,2.489-2.117-1.538-2.117,1.538.809-2.489-2.117-1.538h2.617Z" fill="#fff"/>
        <g id="Group_2052" data-name="Group 2052">
          <g id="Group_2051" data-name="Group 2051" clip-path="url(#clip-path-2)">
            <g id="Group_2050" data-name="Group 2050">
              <path id="Path_1117" data-name="Path 1117" d="M-53.134,1245.591c93.255-15.239,133.94-67.72,264.919-67.72,109.489,0,200.958,62.409,353.082,62.409,213.812,0,308.7-78.408,559.619-88.194,243.781-9.508,270.8,49.712,425.3,44.843,194.937-6.143,255.832-48.471,386.563-31.833v339.7H-53.134Z" fill="url(#linear-gradient-6)"/>
              <path id="Path_1118" data-name="Path 1118" d="M-48.1,1248.7c65.536,31.694,118.777,73.983,249.756,73.983,109.489,0,222.259-64.742,374.382-64.742,114.338,0,163.447,22.3,249.346,22.3,117.586,0,187.4-72.617,304.136-77.17,243.781-9.507,263.738,53.522,418.238,48.653,194.938-6.142,262.9-52.62,393.628-35.981V1504.8H-48.1Z" fill="url(#linear-gradient-7)"/>
              <path id="Path_1119" data-name="Path 1119" d="M-53.134,1253.535C49.074,1314.768,70.219,1360.5,201.2,1360.5c109.489,0,206.606-79.628,355.606-48.963,264.743,54.486,316.762-45.605,567.683-55.391,243.781-9.508,270.066,90.94,424.566,86.072,194.938-6.142,256.569-138.4,387.3-121.759V1504.8H-53.134Z" fill="url(#linear-gradient-8)"/>
            </g>
          </g>
        </g>
      </g>
    </g>
  </g>
</svg>
