<svg xmlns="http://www.w3.org/2000/svg" width="45.948" height="45.894" viewBox="0 0 45.948 45.894">
  <g id="Group_2041" data-name="Group 2041" transform="translate(-168.064 -3048.334)">
    <path id="Path_1094" data-name="Path 1094" d="M191.046,3048.343c4.643,0,9.286-.024,13.928.007a9.1,9.1,0,0,1,8.97,8.363c.1,1.322.059,2.654.06,3.982q0,12.155,0,24.308a9.13,9.13,0,0,1-8.4,9.148c-1.789.127-3.591.059-5.388.06q-8.621.009-17.242,0c-1.975,0-3.952.031-5.926-.014a9.1,9.1,0,0,1-8.88-7.982,30.382,30.382,0,0,1-.1-3.711q-.011-12.522,0-25.045a9.185,9.185,0,0,1,8.978-9.118l.268,0h13.727Zm-.019,4.6q-5.742,0-11.485,0a6.852,6.852,0,0,0-6.867,6.92q.007,5.123,0,10.246,0,6.328,0,12.657a6.589,6.589,0,0,0,1.637,4.424,6.835,6.835,0,0,0,5.439,2.428q11.416-.01,22.834,0a6.848,6.848,0,0,0,6.818-6.835q.017-11.369.006-22.736a7.27,7.27,0,0,0-.4-2.533,6.849,6.849,0,0,0-6.568-4.564C198.639,3052.93,194.833,3052.941,191.027,3052.941Z" fill="#b95496"/>
    <path id="Path_1095" data-name="Path 1095" d="M197.945,3057.681c-.284,1.43-.556,2.819-.845,4.205a.36.36,0,0,1-.264.207c-.434.022-.87.012-1.3.009a1.919,1.919,0,0,0-2.18,2c-.058,1.582-.016,3.168-.016,4.752a.553.553,0,0,0,.047.132h4.541l-.235.952c-.278,1.115-.561,2.228-.828,3.346a.329.329,0,0,1-.387.3c-.893-.013-1.786-.005-2.678-.005-.461,0-.461,0-.461.477q0,5.256,0,10.511v.453h-4.571c-.006-.145-.019-.285-.019-.425,0-3.538,0-7.075.012-10.612,0-.353-.105-.425-.433-.42-1.249.019-2.5.011-3.749.012h-.411v-4.594h4.584c0-.492,0-.935,0-1.379-.019-1.706-.044-3.413-.06-5.12,0-.368.008-.736.031-1.1.1-1.634,1.2-2.492,2.507-3.164a6.521,6.521,0,0,1,2.945-.675c1.159-.011,2.319.058,3.478.095A2.424,2.424,0,0,1,197.945,3057.681Z" fill="#b95496"/>
  </g>
</svg>
