<svg xmlns="http://www.w3.org/2000/svg" width="176.729" height="77.39" viewBox="0 0 176.729 77.39">
  <g id="Group_2028" data-name="Group 2028" transform="translate(-1635.687 -55.081)">
    <g id="Group_2025" data-name="Group 2025">
      <path id="Path_1050" data-name="Path 1050" d="M1730.546,116.413c0-2.319-1.624-4.407-4.871-4.407h-6.262v13.22h3.015V120.82h2.088l3.247,4.406h3.247v-.232l-3.711-4.406C1729.85,119.66,1730.546,118.269,1730.546,116.413Zm-4.871,2.087h-3.247v-3.942h3.247a1.876,1.876,0,0,1,1.856,2.087A1.81,1.81,0,0,1,1725.675,118.5Z" fill="#04f5bc"/>
      <path id="Path_1051" data-name="Path 1051" d="M1737.04,115.717a4.509,4.509,0,0,0-4.871,4.871c0,3.015,1.856,4.87,5.1,4.87a5.853,5.853,0,0,0,3.942-1.391l-1.623-1.624a4.475,4.475,0,0,1-2.319.7c-1.624,0-2.32-.7-2.552-1.623h6.726C1742.374,117.573,1740.287,115.717,1737.04,115.717Zm-2.088,3.711a2.028,2.028,0,0,1,2.088-1.391,2.142,2.142,0,0,1,2.319,1.391Z" fill="#04f5bc"/>
      <path id="Path_1052" data-name="Path 1052" d="M1749.8,115.717a3.179,3.179,0,0,0-3.015,1.392l-.232-1.16H1744V129.4h2.783v-5.1a3.74,3.74,0,0,0,3.015,1.391c2.783,0,4.638-1.855,4.638-4.87S1752.579,115.717,1749.8,115.717Zm-.464,7.19a2.528,2.528,0,0,1-2.551-2.319c0-1.856,1.391-2.319,2.551-2.319a2.324,2.324,0,0,1,2.319,2.319A2.191,2.191,0,0,1,1749.332,122.907Z" fill="#04f5bc"/>
      <path id="Path_1053" data-name="Path 1053" d="M1761.16,115.717a4.816,4.816,0,0,0-5.1,4.871c0,2.783,1.855,4.87,5.1,4.87s5.1-2.087,5.1-4.87A4.817,4.817,0,0,0,1761.16,115.717Zm0,7.422a2.563,2.563,0,0,1,0-5.1,2.563,2.563,0,0,1,0,5.1Z" fill="#04f5bc"/>
      <path id="Path_1054" data-name="Path 1054" d="M1772.988,122.907c-.463,0-.927-.232-.927-1.16v-3.478h2.319v-2.32h-2.319V113.4l-2.783.232v2.319h-1.624v2.32h1.624v3.478c0,2.784,1.623,3.711,3.479,3.711a4.371,4.371,0,0,0,1.855-.464l-.7-2.319C1773.916,122.907,1773.452,122.907,1772.988,122.907Z" fill="#04f5bc"/>
      <path id="Path_1055" data-name="Path 1055" d="M1781.106,115.717a4.509,4.509,0,0,0-4.871,4.871c0,3.015,1.856,4.87,5.1,4.87a5.857,5.857,0,0,0,3.943-1.391l-1.624-1.624a4.473,4.473,0,0,1-2.319.7c-1.624,0-2.319-.7-2.551-1.623h6.726C1786.44,117.573,1784.353,115.717,1781.106,115.717Zm-2.087,3.711a2.027,2.027,0,0,1,2.087-1.391c1.16,0,2.087.463,2.319,1.391Z" fill="#04f5bc"/>
      <path id="Path_1056" data-name="Path 1056" d="M1795.485,115.949l-.231,1.16a3.4,3.4,0,0,0-3.016-1.392c-2.783,0-4.638,1.856-4.638,4.871s1.855,4.87,4.638,4.87a4.5,4.5,0,0,0,3.016-1.391v5.1h2.783V115.717h-2.552Zm-3.015,6.958a2.319,2.319,0,0,1,0-4.638,2.368,2.368,0,0,1,2.552,2.319A2.255,2.255,0,0,1,1792.47,122.907Z" fill="#04f5bc"/>
    </g>
    <g id="Group_2026" data-name="Group 2026">
      <path id="Path_1057" data-name="Path 1057" d="M1727.531,80.7h-4.871a1.958,1.958,0,0,1-1.391-.464,1.769,1.769,0,0,1-.464-1.159c0-.464.232-.7.464-1.16s.927-.464,1.623-.464h4.407V74.666h-4.407a6.768,6.768,0,0,0-2.087.464,10.085,10.085,0,0,0-1.624.928c-.464.232-.7.927-.927,1.391a3.947,3.947,0,0,0-.232,1.624V80c0,.232.232.464.232.7h-1.392v2.783h10.669Z" fill="#5745b2"/>
      <path id="Path_1058" data-name="Path 1058" d="M1739.359,76.753c.232.232.464.464.7.464s.7.232.927.232a1.4,1.4,0,0,0,.928-.232c.232-.232.464-.232.7-.464s.464-.463.464-.695a1.972,1.972,0,0,0,0-1.856c-.232-.232-.232-.464-.464-.7s-.464-.463-.7-.463-.7-.232-.928-.232a1.393,1.393,0,0,0-.927.232c-.232.231-.464.231-.7.463s-.464.464-.464.7c-.232,0-.232.464-.232.7a1.4,1.4,0,0,0,.232.928A1.2,1.2,0,0,0,1739.359,76.753Z" fill="#5745b2"/>
      <path id="Path_1059" data-name="Path 1059" d="M1748.636,80.7H1744v13.22h-9.278V72.347h-4.638V93.916h-11.365a4.631,4.631,0,0,1-2.087-.464,2.32,2.32,0,0,1-1.16-.927c-.232-.464-.463-.7-.695-1.16a2.942,2.942,0,0,1-.232-1.392,7.147,7.147,0,0,1,.232-2.319,15.908,15.908,0,0,1,.695-1.855l-4.174-2.088a3.3,3.3,0,0,0-.464,1.392c0,.464-.464.928-.464,1.623-.232.464-.232,1.16-.464,1.856a4.986,4.986,0,0,0,0,1.855,13.557,13.557,0,0,0,.464,3.015,7.826,7.826,0,0,0,1.392,2.783,5.908,5.908,0,0,0,2.783,1.856,11.228,11.228,0,0,0,4.174.7h27.368a1.4,1.4,0,0,0,.928-.232c.231-.232.463-.232.7-.464s.464-.464.464-.7c.232-.232.232-.464.232-.928v-.232l.232-15.539Z" fill="#5745b2"/>
      <path id="Path_1060" data-name="Path 1060" d="M1748.636,73.043c-.232-.232-.464-.464-.7-.464a1.393,1.393,0,0,0-.927-.232c-.464,0-.7,0-.928.232s-.464.232-.7.464-.464.463-.464.695a1.972,1.972,0,0,0,0,1.856c.232.232.232.464.464.7s.464.463.7.463a1.97,1.97,0,0,0,1.855,0c.232-.231.464-.231.7-.463s.464-.464.464-.7a1.972,1.972,0,0,0,0-1.856A3.339,3.339,0,0,0,1748.636,73.043Z" fill="#5745b2"/>
      <path id="Path_1061" data-name="Path 1061" d="M1780.874,102.5c-.232-.232-.464-.463-.7-.463a1.97,1.97,0,0,0-1.855,0c-.232.231-.464.231-.7.463s-.464.464-.464.7a1.973,1.973,0,0,0,0,1.856c.232.232.232.463.464.695s.464.464.7.464a1.97,1.97,0,0,0,1.855,0c.232-.232.464-.232.7-.464s.464-.463.464-.695a1.973,1.973,0,0,0,0-1.856C1781.338,102.961,1781.106,102.729,1780.874,102.5Z" fill="#5745b2"/>
      <path id="Path_1062" data-name="Path 1062" d="M1798.037,80.7H1793.4v13.22h-11.364V80.7H1777.4v13.22h-7.422V91.365a26.622,26.622,0,0,0-.232-4.407,21.307,21.307,0,0,1-.231-3.711,2.089,2.089,0,0,0-.232-1.159,4.1,4.1,0,0,0-1.624-1.624,2.092,2.092,0,0,0-1.16-.232h-5.8a9.307,9.307,0,0,0-3.479.7,4.256,4.256,0,0,0-2.319,1.624,11.63,11.63,0,0,0-1.855,2.783,8.467,8.467,0,0,0-.7,3.479v6.958a2.033,2.033,0,0,0,1.623,2.087c.464.232,1.16.232,1.624.464a3.946,3.946,0,0,0,1.623.232c.7,0,1.16.232,1.856.232h3.711a5.763,5.763,0,0,0,1.855-.232,6.952,6.952,0,0,1-.928,2.319,12.855,12.855,0,0,1-1.391,1.855,6.083,6.083,0,0,1-2.088,1.16,10.284,10.284,0,0,1-3.015.464v4.638a10.769,10.769,0,0,0,4.871-.927,13.013,13.013,0,0,0,3.479-2.32,9.176,9.176,0,0,0,2.319-3.479l1.392-4.174h26.439a1.4,1.4,0,0,0,.928-.232c.232-.232.464-.232.7-.464s.464-.464.464-.7c.232-.232.232-.464.232-.928V80.7ZM1765.1,93.684a25.552,25.552,0,0,1-4.175.464h-1.855a1.4,1.4,0,0,1-.928-.232,1.739,1.739,0,0,0-1.16-.232v-5.1c0-.464.232-1.16.232-1.624s.464-.927.928-1.391a2.957,2.957,0,0,1,1.392-.928,3.941,3.941,0,0,1,1.623-.232h4.175v6.262A12.251,12.251,0,0,1,1765.1,93.684Z" fill="#5745b2"/>
      <path id="Path_1063" data-name="Path 1063" d="M1795.949,102.5c-.232-.232-.464-.463-.695-.463a1.972,1.972,0,0,0-1.856,0c-.232.231-.464.231-.7.463s-.7.464-.7.928a1.972,1.972,0,0,0,0,1.856c.231.231.231.463.463.695s.464.464.7.464a1.972,1.972,0,0,0,1.856,0c.232-.232.463-.232.7-.464s.464-.464.464-.695a1.972,1.972,0,0,0,0-1.856C1796.413,102.961,1796.181,102.729,1795.949,102.5Z" fill="#5745b2"/>
      <path id="Path_1064" data-name="Path 1064" d="M1790.151,102.5c-.232-.232-.464-.463-.7-.463a1.97,1.97,0,0,0-1.855,0c-.232.231-.464.231-.7.463s-.464.464-.464.7-.232.7-.232.928a1.4,1.4,0,0,0,.232.928c.232.232.232.463.464.695s.464.464.7.464a1.97,1.97,0,0,0,1.855,0c.232-.232.464-.232.7-.464s.464-.463.464-.695a1.972,1.972,0,0,0,0-1.856C1790.383,102.961,1790.383,102.729,1790.151,102.5Z" fill="#5745b2"/>
      <path id="Path_1065" data-name="Path 1065" d="M1812.416,86.726c0-1.391-.232-2.551-.232-3.711h-4.638V94.148a15.661,15.661,0,0,1-.464,3.247c-.232,1.16-.464,1.855-.7,2.783a20.44,20.44,0,0,1-1.391,2.319,5.922,5.922,0,0,1-2.32,1.624,6.874,6.874,0,0,1-3.247.464v4.638a11.812,11.812,0,0,0,5.1-.927,10.662,10.662,0,0,0,5.8-5.8q.7-2.086,1.391-4.174a20.29,20.29,0,0,0,.464-3.711c0-1.16.232-2.551.232-3.711Z" fill="#5745b2"/>
    </g>
    <g id="Group_2027" data-name="Group 2027">
      <path id="Path_1066" data-name="Path 1066" d="M1691.814,96.235a28.284,28.284,0,0,1-7.19,7.654c-.232.232-.464.232-1.16.464-2.783-4.175-5.334-8.35-8.117-12.524,4.175-2.551,6.494-8.118,6.03-13.22-.232-5.334-3.711-9.509-8.581-9.509-8.118-.232-12.292.232-20.41,0-1.623,0-2.319,0-2.319,1.855v14.38c0,3.479-3.479,6.262-6.726,6.262h0a7.675,7.675,0,0,1-7.654-7.422V63.07c0-4.871,2.783-7.886,7.422-7.886,10.9,0,18.09-.232,28.991,0,10.437,0,19.946,8.581,22.729,19.714A26.385,26.385,0,0,1,1691.814,96.235Z" fill="#5745b2"/>
      <path id="Path_1067" data-name="Path 1067" d="M1675.347,92.061l10.2,11.133.928-.7-10.437-11.364Z" fill="#0c053f" opacity="0.19" style="isolation: isolate"/>
      <path id="Path_1068" data-name="Path 1068" d="M1699.235,119.2h0a7.087,7.087,0,0,1-5.8,8.118l-35.253,5.1a6.8,6.8,0,0,1-7.653-5.8v-.232a7.031,7.031,0,0,1,5.8-7.886l35.253-5.1A6.49,6.49,0,0,1,1699.235,119.2Z" fill="#04f5bc"/>
      <path id="Path_1069" data-name="Path 1069" d="M1697.148,125.226l-.232.232a6.938,6.938,0,0,1-9.741-.464l-25.048-27.367a6.939,6.939,0,0,1,.464-9.741l.232-.232a6.939,6.939,0,0,1,9.741.464l25.048,27.367A6.939,6.939,0,0,1,1697.148,125.226Z" fill="#00ffc1"/>
    </g>
  </g>
</svg>
