<svg xmlns="http://www.w3.org/2000/svg" width="48.339" height="48.339" viewBox="0 0 48.339 48.339">
  <g id="Group_2042" data-name="Group 2042" transform="translate(-228.178 -3047.711)">
    <path id="Path_1096" data-name="Path 1096" d="M274.7,3057.678v28.406a5.212,5.212,0,0,0-.181.555,9.107,9.107,0,0,1-5.539,6.826,23.532,23.532,0,0,1-2.424.763H238.145a2.936,2.936,0,0,0-.455-.169,9.08,9.08,0,0,1-6.926-5.55,23.381,23.381,0,0,1-.764-2.425v-28.406a5.375,5.375,0,0,0,.182-.555,9.108,9.108,0,0,1,5.539-6.827,23.617,23.617,0,0,1,2.424-.763h28.406a2.861,2.861,0,0,0,.455.169,9.078,9.078,0,0,1,6.926,5.55A23.4,23.4,0,0,1,274.7,3057.678Zm-20.465,27.2c0-3.509-.075-6.914.045-10.312a6.1,6.1,0,0,1,.975-3.128,3.32,3.32,0,0,1,5.938.783,6.693,6.693,0,0,1,.409,2.319c.045,3.075.019,6.152.019,9.228v1.062h5.675c0-4.046.01-8.01-.008-11.975a18.2,18.2,0,0,0-.176-2.469,6.62,6.62,0,0,0-7.284-5.929,7.106,7.106,0,0,0-5.621,3.191V3064.5h-5.51v20.382Zm-9.368-20.389h-5.487v20.357h5.487Zm.482-5.693a3.259,3.259,0,0,0-3.248-3.3,3.277,3.277,0,1,0,3.248,3.3Z" fill="none" stroke="#b95496" stroke-miterlimit="10" stroke-width="3.644"/>
    <path id="Path_1097" data-name="Path 1097" d="M254.23,3084.882h-5.538V3064.5h5.51v3.152a7.106,7.106,0,0,1,5.621-3.191,6.62,6.62,0,0,1,7.284,5.929,18.2,18.2,0,0,1,.176,2.469c.018,3.965.008,7.929.008,11.975h-5.675v-1.062c0-3.076.026-6.153-.019-9.228a6.693,6.693,0,0,0-.409-2.319,3.32,3.32,0,0,0-5.938-.783,6.1,6.1,0,0,0-.975,3.128C254.155,3077.968,254.23,3081.373,254.23,3084.882Z" fill="#471a7d"/>
    <path id="Path_1098" data-name="Path 1098" d="M244.862,3064.493v20.357h-5.487v-20.357Z" fill="#471a7d"/>
    <path id="Path_1099" data-name="Path 1099" d="M245.344,3058.8a3.225,3.225,0,0,1-3.275,3.253,3.277,3.277,0,0,1,.027-6.553A3.259,3.259,0,0,1,245.344,3058.8Z" fill="#471a7d"/>
  </g>
</svg>
