<svg xmlns="http://www.w3.org/2000/svg" width="45.625" height="45.625" viewBox="0 0 45.625 45.625">
  <g id="Group_2040" data-name="Group 2040" transform="translate(-106.915 -3048.603)">
    <path id="Path_1091" data-name="Path 1091" d="M106.915,3080.921V3061.91a10.582,10.582,0,0,0,.189-1.081c.466-6.328,4.092-10.5,10.259-11.775.944-.2,1.906-.3,2.859-.451h19.011a10.629,10.629,0,0,0,1.081.189c6.321.466,10.5,4.1,11.775,10.259.195.944.3,1.906.451,2.859v19.011a10.467,10.467,0,0,0-.189,1.074c-.462,6.327-4.09,10.509-10.258,11.782-.945.195-1.907.3-2.86.451H120.222a10.562,10.562,0,0,0-1.081-.189c-6.326-.466-10.5-4.093-11.775-10.259C107.171,3082.836,107.063,3081.874,106.915,3080.921Zm41.274-9.542h.135c0-2.851.009-5.7-.006-8.552,0-.6-.092-1.2-.143-1.8-.416-4.829-3.268-7.875-8.112-8.011q-10.341-.291-20.7,0c-4.825.136-7.9,3.212-8.035,8.038q-.291,10.343,0,20.7c.138,4.875,3.217,7.929,8.11,8.069q10.2.291,20.413.012c5.1-.147,8.019-3.136,8.3-8.2C148.342,3078.224,148.189,3074.8,148.189,3071.379Z" fill="#b95496"/>
    <path id="Path_1092" data-name="Path 1092" d="M129.707,3083.171a11.756,11.756,0,1,1,11.776-11.688A11.778,11.778,0,0,1,129.707,3083.171Zm-7.555-11.781a7.574,7.574,0,1,0,7.648-7.547A7.594,7.594,0,0,0,122.152,3071.39Z" fill="#b95496"/>
    <path id="Path_1093" data-name="Path 1093" d="M141.931,3061.942a2.653,2.653,0,0,1-2.788-2.7,2.72,2.72,0,0,1,2.778-2.751,2.692,2.692,0,0,1,2.728,2.787A2.615,2.615,0,0,1,141.931,3061.942Z" fill="#b95496"/>
  </g>
</svg>
