<svg xmlns="http://www.w3.org/2000/svg" width="42.814" height="42.815" viewBox="0 0 42.814 42.815">
  <g id="Group_2039" data-name="Group 2039" transform="translate(-106.915 -2936.578)">
    <g id="Group_2038" data-name="Group 2038">
      <path id="Path_1090" data-name="Path 1090" d="M128.322,2936.578a21.408,21.408,0,1,0,21.407,21.408A21.408,21.408,0,0,0,128.322,2936.578Zm-7.006,3.48a22.24,22.24,0,0,0-4.746,9.365h-5.5A19.394,19.394,0,0,1,121.316,2940.058Zm-12.26,17.928a19.058,19.058,0,0,1,1.142-6.423h5.9a33.869,33.869,0,0,0,0,12.845H110.2A19.056,19.056,0,0,1,109.056,2957.986Zm2.019,8.563h5.5a22.25,22.25,0,0,0,4.746,9.364A19.4,19.4,0,0,1,111.075,2966.549Zm16.177,10.6c-3.664-.69-6.847-4.87-8.476-10.6h8.476Zm0-12.743h-8.986a32.2,32.2,0,0,1,0-12.845h8.986Zm0-14.985h-8.476c1.629-5.732,4.812-9.913,8.476-10.6Zm18.317,0h-5.494a22.257,22.257,0,0,0-4.746-9.365A19.392,19.392,0,0,1,145.569,2949.423Zm-16.176-10.6c3.663.69,6.846,4.871,8.475,10.6h-8.475Zm0,12.743h8.986a32.2,32.2,0,0,1,0,12.845h-8.986Zm0,25.588v-10.6h8.475C136.239,2972.281,133.056,2976.461,129.393,2977.151Zm5.936-1.238a22.267,22.267,0,0,0,4.746-9.364h5.494A19.4,19.4,0,0,1,135.329,2975.913Zm5.222-11.505a33.815,33.815,0,0,0,0-12.845h5.9a18.623,18.623,0,0,1,0,12.845Z" fill="#b95496"/>
    </g>
  </g>
</svg>
