<svg xmlns="http://www.w3.org/2000/svg" width="66.643" height="48.568" viewBox="0 0 66.643 48.568">
  <path id="Path_1100" data-name="Path 1100" d="M314.689,3081.773v-18.192l15.989,9.1Zm35.567-23.917a7.687,7.687,0,0,0-5.409-5.443c-4.771-1.287-23.9-1.287-23.9-1.287s-19.13,0-23.9,1.287a7.687,7.687,0,0,0-5.409,5.443c-1.278,4.8-1.278,14.821-1.278,14.821s0,10.018,1.278,14.821a7.69,7.69,0,0,0,5.409,5.444c4.771,1.286,23.9,1.286,23.9,1.286s19.131,0,23.9-1.286a7.69,7.69,0,0,0,5.409-5.444c1.278-4.8,1.278-14.821,1.278-14.821s0-10.019-1.278-14.821" transform="translate(-287.624 -3048.393)" fill="none" stroke="#b95496" stroke-miterlimit="10" stroke-width="5.466"/>
</svg>
